<svg width="21" height="20" viewBox="0 0 21 20" fill="none" xmlns="http://www.w3.org/2000/svg">
<path fill-rule="evenodd" clip-rule="evenodd" d="M1.20024 3.04539C1.22126 1.34623 2.62721 0 4.32727 0H16.1818C17.8788 0 19.2827 1.34132 19.3087 3.03609L20.795 16.311C20.7983 16.3406 20.8 16.3703 20.8 16.4C20.8 18.1174 19.3857 19.484 17.6727 19.484H3.12727C1.41434 19.484 0 18.1174 0 16.4C0 16.3761 0.00107735 16.3521 0.00322878 16.3282L1.20024 3.04539ZM4.32727 1.6C3.46957 1.6 2.8 2.2785 2.8 3.08402C2.8 3.10799 2.79892 3.13194 2.79677 3.15582L1.60035 16.4321C1.61783 17.2235 2.28097 17.884 3.12727 17.884H17.6727C18.5163 17.884 19.1778 17.2278 19.1995 16.4398L17.7141 3.17303C17.7107 3.14347 17.7091 3.11376 17.7091 3.08402C17.7091 2.2785 17.0395 1.6 16.1818 1.6H4.32727ZM6.8 5.28405C7.24183 5.28405 7.6 5.64222 7.6 6.08405C7.6 7.63044 8.8536 8.88405 10.4 8.88405C11.9464 8.88405 13.2 7.63044 13.2 6.08405C13.2 5.64222 13.5582 5.28405 14 5.28405C14.4418 5.28405 14.8 5.64222 14.8 6.08405C14.8 8.5141 12.8301 10.484 10.4 10.484C7.96995 10.484 6 8.5141 6 6.08405C6 5.64222 6.35817 5.28405 6.8 5.28405Z" fill="#AFB1B5"/>
</svg>
