<svg width="24" height="24" viewBox="0 0 24 24" fill="none" xmlns="http://www.w3.org/2000/svg">
<path fill-rule="evenodd" clip-rule="evenodd" d="M4.40205 1.63867C2.87615 1.63867 1.63916 2.87566 1.63916 4.40156V8.5459C1.63916 10.0718 2.87615 11.3088 4.40205 11.3088H8.54639C10.0723 11.3088 11.3093 10.0718 11.3093 8.5459V4.40156C11.3093 2.87566 10.0723 1.63867 8.54639 1.63867H4.40205ZM3.02061 4.40156C3.02061 3.63861 3.6391 3.02012 4.40205 3.02012H8.54639C9.30932 3.02012 9.92783 3.63861 9.92783 4.40156V8.5459C9.92783 9.30884 9.30932 9.92734 8.54639 9.92734H4.40205C3.6391 9.92734 3.02061 9.30884 3.02061 8.5459V4.40156Z" fill="#AFB1B5"/>
<path fill-rule="evenodd" clip-rule="evenodd" d="M1.58916 4.40157C1.58916 2.84806 2.84853 1.58868 4.40205 1.58868H8.54638C10.0999 1.58868 11.3593 2.84806 11.3593 4.40157V8.54591C11.3593 10.0994 10.0999 11.3588 8.54638 11.3588H4.40205C2.84853 11.3588 1.58916 10.0994 1.58916 8.54591V4.40157ZM4.40205 1.68868C2.90376 1.68868 1.68916 2.90329 1.68916 4.40157V8.54591C1.68916 10.0442 2.90376 11.2588 4.40205 11.2588H8.54638C10.0447 11.2588 11.2593 10.0442 11.2593 8.54591V4.40157C11.2593 2.90329 10.0447 1.68868 8.54638 1.68868H4.40205ZM4.40205 3.07013C3.66671 3.07013 3.0706 3.66624 3.0706 4.40157V8.54591C3.0706 9.28123 3.66671 9.87736 4.40205 9.87736H8.54638C9.28171 9.87736 9.87783 9.28123 9.87783 8.54591V4.40157C9.87783 3.66624 9.28171 3.07013 8.54638 3.07013H4.40205ZM2.9706 4.40157C2.9706 3.61101 3.61148 2.97013 4.40205 2.97013H8.54638C9.33694 2.97013 9.97783 3.61101 9.97783 4.40157V8.54591C9.97783 9.33646 9.33694 9.97736 8.54638 9.97736H4.40205C3.61148 9.97736 2.9706 9.33646 2.9706 8.54591V4.40157Z" fill="#AFB1B5"/>
<path fill-rule="evenodd" clip-rule="evenodd" d="M18.1992 2.17624C18.1277 1.8618 17.8482 1.63867 17.5257 1.63867C17.2032 1.63867 16.9237 1.8618 16.8522 2.17624L16.47 3.85691C16.2932 4.63427 15.6862 5.24127 14.9088 5.41803L13.2282 5.80021C12.9138 5.8717 12.6906 6.15127 12.6906 6.47373C12.6906 6.79619 12.9138 7.07576 13.2282 7.14725L14.9088 7.52943C15.6862 7.70619 16.2932 8.31319 16.47 9.09057L16.8522 10.7712C16.9237 11.0857 17.2032 11.3088 17.5257 11.3088C17.8482 11.3088 18.1277 11.0857 18.1992 10.7712L18.5814 9.09057C18.7581 8.31319 19.3651 7.70619 20.1425 7.52943L21.8232 7.14725C22.1376 7.07576 22.3607 6.79619 22.3607 6.47373C22.3607 6.15127 22.1376 5.8717 21.8232 5.80021L20.1425 5.41803C19.3651 5.24127 18.7581 4.63427 18.5814 3.85691L18.1992 2.17624ZM16.0194 6.47373C16.6672 6.14312 17.1951 5.61523 17.5257 4.9674C17.8563 5.61523 18.3842 6.14312 19.032 6.47373C18.3842 6.80435 17.8563 7.33223 17.5257 7.98006C17.1951 7.33223 16.6672 6.80435 16.0194 6.47373Z" fill="#AFB1B5"/>
<path fill-rule="evenodd" clip-rule="evenodd" d="M1.63916 15.4531C1.63916 13.9272 2.87615 12.6902 4.40205 12.6902H8.54639C10.0723 12.6902 11.3093 13.9272 11.3093 15.4531V19.5975C11.3093 21.1234 10.0723 22.3604 8.54639 22.3604H4.40205C2.87615 22.3604 1.63916 21.1234 1.63916 19.5975V15.4531ZM4.40205 14.0717C3.6391 14.0717 3.02061 14.6902 3.02061 15.4531V19.5975C3.02061 20.3604 3.6391 20.9789 4.40205 20.9789H8.54639C9.30932 20.9789 9.92783 20.3604 9.92783 19.5975V15.4531C9.92783 14.6902 9.30932 14.0717 8.54639 14.0717H4.40205Z" fill="#AFB1B5"/>
<path fill-rule="evenodd" clip-rule="evenodd" d="M4.40205 12.7403C2.90376 12.7403 1.68916 13.9549 1.68916 15.4531V19.5975C1.68916 21.0958 2.90376 22.3104 4.40205 22.3104H8.54638C10.0447 22.3104 11.2593 21.0958 11.2593 19.5975V15.4531C11.2593 13.9549 10.0447 12.7403 8.54638 12.7403H4.40205ZM1.58916 15.4531C1.58916 13.8996 2.84853 12.6403 4.40205 12.6403H8.54638C10.0999 12.6403 11.3593 13.8996 11.3593 15.4531V19.5975C11.3593 21.151 10.0999 22.4104 8.54638 22.4104H4.40205C2.84853 22.4104 1.58916 21.151 1.58916 19.5975V15.4531ZM2.9706 15.4531C2.9706 14.6626 3.61148 14.0217 4.40205 14.0217H8.54638C9.33694 14.0217 9.97783 14.6626 9.97783 15.4531V19.5975C9.97783 20.388 9.33694 21.0289 8.54638 21.0289H4.40205C3.61148 21.0289 2.9706 20.388 2.9706 19.5975V15.4531ZM4.40205 14.1217C3.66671 14.1217 3.0706 14.7178 3.0706 15.4531V19.5975C3.0706 20.3328 3.66671 20.9289 4.40205 20.9289H8.54638C9.28171 20.9289 9.87783 20.3328 9.87783 19.5975V15.4531C9.87783 14.7178 9.28171 14.1217 8.54638 14.1217H4.40205Z" fill="#AFB1B5"/>
<path fill-rule="evenodd" clip-rule="evenodd" d="M15.4535 12.6902C13.9276 12.6902 12.6906 13.9272 12.6906 15.4531V19.5975C12.6906 21.1234 13.9276 22.3604 15.4535 22.3604H19.5979C21.1238 22.3604 22.3607 21.1234 22.3607 19.5975V15.4531C22.3607 13.9272 21.1238 12.6902 19.5979 12.6902H15.4535ZM14.0721 15.4531C14.0721 14.6902 14.6906 14.0717 15.4535 14.0717H19.5979C20.3608 14.0717 20.9793 14.6902 20.9793 15.4531V19.5975C20.9793 20.3604 20.3608 20.9789 19.5979 20.9789H15.4535C14.6906 20.9789 14.0721 20.3604 14.0721 19.5975V15.4531Z" fill="#AFB1B5"/>
<path fill-rule="evenodd" clip-rule="evenodd" d="M12.6406 15.4531C12.6406 13.8996 13.9 12.6403 15.4535 12.6403H19.5979C21.1514 12.6403 22.4107 13.8996 22.4107 15.4531V19.5975C22.4107 21.151 21.1514 22.4104 19.5979 22.4104H15.4535C13.9 22.4104 12.6406 21.151 12.6406 19.5975V15.4531ZM15.4535 12.7403C13.9552 12.7403 12.7406 13.9549 12.7406 15.4531V19.5975C12.7406 21.0958 13.9552 22.3104 15.4535 22.3104H19.5979C21.0961 22.3104 22.3107 21.0958 22.3107 19.5975V15.4531C22.3107 13.9549 21.0961 12.7403 19.5979 12.7403H15.4535ZM15.4535 14.1217C14.7182 14.1217 14.1221 14.7178 14.1221 15.4531V19.5975C14.1221 20.3328 14.7182 20.9289 15.4535 20.9289H19.5979C20.3332 20.9289 20.9293 20.3328 20.9293 19.5975V15.4531C20.9293 14.7178 20.3332 14.1217 19.5979 14.1217H15.4535ZM14.0221 15.4531C14.0221 14.6626 14.663 14.0217 15.4535 14.0217H19.5979C20.3884 14.0217 21.0293 14.6626 21.0293 15.4531V19.5975C21.0293 20.388 20.3884 21.0289 19.5979 21.0289H15.4535C14.663 21.0289 14.0221 20.388 14.0221 19.5975V15.4531Z" fill="#AFB1B5"/>
</svg>
