<svg width="22" height="21" viewBox="0 0 22 21" fill="none" xmlns="http://www.w3.org/2000/svg">
<path fill-rule="evenodd" clip-rule="evenodd" d="M1 8.59961C1 8.18561 1.336 7.84961 1.75 7.84961C2.164 7.84961 2.5 8.18561 2.5 8.59961V17.0996C2.5 18.3426 3.507 19.3496 4.75 19.3496H16.75C17.993 19.3496 19 18.3426 19 17.0996V8.59961C19 8.18561 19.336 7.84961 19.75 7.84961C20.164 7.84961 20.5 8.18561 20.5 8.59961V17.0996C20.5 19.1706 18.821 20.8496 16.75 20.8496H4.75C2.679 20.8496 1 19.1706 1 17.0996V8.59961Z" fill="#AFB1B5"/>
<path fill-rule="evenodd" clip-rule="evenodd" d="M10.75 11.8496C11.745 11.8496 12.698 12.2446 13.402 12.9476C14.105 13.6516 14.5 14.6046 14.5 15.5996V20.0996C14.5 20.5136 14.164 20.8496 13.75 20.8496C13.336 20.8496 13 20.5136 13 20.0996V15.5996C13 15.0026 12.763 14.4306 12.341 14.0086C11.919 13.5866 11.347 13.3496 10.75 13.3496C10.153 13.3496 9.581 13.5866 9.159 14.0086C8.737 14.4306 8.5 15.0026 8.5 15.5996V20.0996C8.5 20.5136 8.164 20.8496 7.75 20.8496C7.336 20.8496 7 20.5136 7 20.0996V15.5996C7 14.6046 7.395 13.6516 8.098 12.9476C8.802 12.2446 9.755 11.8496 10.75 11.8496Z" fill="#AFB1B5"/>
<path fill-rule="evenodd" clip-rule="evenodd" d="M7.6941 0.75V6.375C7.6941 8.487 5.98009 10.2 3.86809 10.2C2.67709 10.2 1.55209 9.651 0.819094 8.713C0.086094 7.774 -0.172906 6.551 0.115094 5.395L0.910094 2.216C1.23609 0.913 2.40609 0 3.74809 0H6.9441C7.3581 0 7.6941 0.336 7.6941 0.75ZM6.19409 1.5H3.74809C3.09409 1.5 2.52409 1.945 2.36609 2.579L1.57109 5.759C1.39409 6.466 1.55309 7.215 2.00109 7.79C2.45009 8.364 3.13909 8.7 3.86809 8.7C5.15209 8.7 6.19409 7.659 6.19409 6.375V1.5Z" fill="#AFB1B5"/>
<path fill-rule="evenodd" clip-rule="evenodd" d="M14.5561 0H17.7521C19.0941 0 20.2641 0.913 20.5901 2.216L21.3851 5.395C21.6731 6.551 21.4141 7.774 20.6811 8.713C19.9481 9.651 18.8231 10.2 17.6321 10.2C15.5201 10.2 13.8061 8.487 13.8061 6.375V0.75C13.8061 0.336 14.1421 0 14.5561 0ZM15.3061 1.5V6.375C15.3061 7.659 16.3481 8.7 17.6321 8.7C18.3611 8.7 19.0501 8.364 19.4991 7.79C19.9471 7.215 20.1061 6.466 19.9291 5.759L19.1341 2.579C18.9761 1.945 18.4061 1.5 17.7521 1.5H15.3061Z" fill="#AFB1B5"/>
<path fill-rule="evenodd" clip-rule="evenodd" d="M6.9361 0H14.5561C14.7551 0 14.9461 0.0789999 15.0871 0.22C15.2281 0.361 15.3061 0.552 15.3061 0.751L15.3011 6.191C15.2991 8.406 13.5031 10.2 11.2891 10.2H10.1991C7.9831 10.2 6.1861 8.404 6.1861 6.188V0.75C6.1861 0.336 6.5221 0 6.9361 0ZM7.6861 1.5V6.188C7.6861 7.575 8.8111 8.7 10.1991 8.7H11.2891C12.6761 8.7 13.8001 7.577 13.8011 6.19L13.8061 1.5H7.6861Z" fill="#AFB1B5"/>
</svg>
