<svg width="13" height="14" viewBox="0 0 13 14" fill="none" xmlns="http://www.w3.org/2000/svg">
<path d="M12.2652 3.15019C12.2652 3.08797 12.2518 3.03909 12.2252 3.00354C12.1807 2.89689 12.1052 2.83467 11.9985 2.8169L6.2659 0.0305691C6.16814 -0.0138702 6.07037 -0.0138702 5.97261 0.0305691L0.186644 2.84356C0.133317 2.87022 0.0888781 2.91022 0.0533268 2.96354C0.0177756 3.01687 0 3.07464 0 3.13686V10.1893C0 10.2604 0.0155537 10.3226 0.046661 10.376C0.0777683 10.4293 0.124429 10.4693 0.186644 10.496L5.97261 13.2956L5.98594 13.309H6.0126V13.3223H6.0526C6.06148 13.3312 6.07037 13.3356 6.07926 13.3356H6.17258L6.19924 13.3223H6.22591C6.2348 13.3223 6.23924 13.3178 6.23924 13.309H6.2659L6.27923 13.2956L12.0785 10.4826C12.1407 10.456 12.1874 10.416 12.2185 10.3626C12.2496 10.3093 12.2652 10.2471 12.2652 10.176V3.15019ZM6.11925 0.710486L11.1453 3.15019L9.2922 4.04341L4.27948 1.61704L6.11925 0.710486ZM6.11925 5.57656L1.10653 3.15019L3.49291 1.99033L8.51896 4.4167L6.11925 5.57656ZM0.666585 3.69679L5.78596 6.17649V12.4557L0.666585 9.97602V3.69679ZM6.46588 12.4557V6.17649L8.86559 5.0033V6.6431C8.86559 6.74086 8.89892 6.82307 8.96557 6.88973C9.03223 6.95639 9.11 6.98972 9.19888 6.98972C9.28776 6.98972 9.36553 6.95639 9.43218 6.88973C9.49884 6.82307 9.53217 6.74086 9.53217 6.6431V4.68334L11.5853 3.68346V9.96269L6.46588 12.4557Z" fill="#07A83E"/>
</svg>
