<svg width="11" height="9" viewBox="0 0 11 9" fill="none" xmlns="http://www.w3.org/2000/svg">
<path fill-rule="evenodd" clip-rule="evenodd" d="M1.04797 1.07782C1.4964 0.629515 2.10453 0.377674 2.73862 0.377674C3.37271 0.377674 3.98083 0.629515 4.42927 1.07782L5.12992 1.77787L5.83057 1.07782C6.05116 0.849421 6.31503 0.667246 6.60678 0.541921C6.89853 0.416595 7.21231 0.350628 7.52983 0.347869C7.84735 0.345109 8.16223 0.405614 8.45611 0.525851C8.75 0.646087 9.01699 0.823649 9.24152 1.04818C9.46604 1.2727 9.6436 1.53969 9.76384 1.83358C9.88408 2.12746 9.94458 2.44235 9.94182 2.75986C9.93906 3.07738 9.8731 3.39116 9.74777 3.68291C9.62244 3.97466 9.44027 4.23853 9.21188 4.45912L5.12992 8.54167L1.04797 4.45912C0.599665 4.01068 0.347824 3.40256 0.347824 2.76847C0.347824 2.13438 0.599665 1.52625 1.04797 1.07782V1.07782Z" stroke="#1C1E20" stroke-width="0.695652" stroke-linejoin="round"/>
</svg>
