<svg width="11" height="9" viewBox="0 0 11 9" fill="none" xmlns="http://www.w3.org/2000/svg">
<path fill-rule="evenodd" clip-rule="evenodd" d="M1.04798 1.07782C1.49642 0.629515 2.10454 0.377674 2.73863 0.377674C3.37272 0.377674 3.98085 0.629515 4.42928 1.07782L5.12994 1.77787L5.83059 1.07782C6.05118 0.849421 6.31505 0.667246 6.60679 0.541921C6.89854 0.416595 7.21233 0.350628 7.52985 0.347869C7.84736 0.345109 8.16225 0.405614 8.45613 0.525851C8.75001 0.646087 9.01701 0.823649 9.24153 1.04818C9.46606 1.2727 9.64362 1.5397 9.76386 1.83358C9.88409 2.12746 9.9446 2.44235 9.94184 2.75986C9.93908 3.07738 9.87311 3.39117 9.74779 3.68291C9.62246 3.97466 9.44029 4.23853 9.21189 4.45912L5.12994 8.54167L1.04798 4.45912C0.59968 4.01068 0.347839 3.40256 0.347839 2.76847C0.347839 2.13438 0.59968 1.52625 1.04798 1.07782Z" fill="#FF5555" stroke="#FF5555" stroke-width="0.695652" stroke-linejoin="round"/>
</svg>
